<mxfile host="Electron" agent="Mozilla/5.0 (Windows NT 10.0; Win64; x64) AppleWebKit/537.36 (KHTML, like Gecko) draw.io/26.2.15 Chrome/134.0.6998.205 Electron/35.2.1 Safari/537.36" version="26.2.15">
  <diagram name="Page-1" id="JkH_FzBB4lwxhfmTubcu">
    <mxGraphModel dx="679" dy="400" grid="1" gridSize="10" guides="1" tooltips="1" connect="1" arrows="1" fold="1" page="1" pageScale="1" pageWidth="1169" pageHeight="827" math="0" shadow="0">
      <root>
        <mxCell id="0" />
        <mxCell id="1" parent="0" />
        <mxCell id="BHncRap-kiWOwBSlmbQk-1" value="" style="rounded=0;whiteSpace=wrap;html=1;strokeWidth=2;" parent="1" vertex="1">
          <mxGeometry x="420" y="510" width="410" height="60" as="geometry" />
        </mxCell>
        <mxCell id="BHncRap-kiWOwBSlmbQk-2" value="" style="rounded=0;whiteSpace=wrap;html=1;fillColor=#D5E8D4;strokeColor=#666666;fontColor=#333333;" parent="1" vertex="1">
          <mxGeometry x="630" y="520" width="40" height="40" as="geometry" />
        </mxCell>
        <mxCell id="BHncRap-kiWOwBSlmbQk-3" value="" style="rounded=0;whiteSpace=wrap;html=1;strokeWidth=2;" parent="1" vertex="1">
          <mxGeometry x="420" y="420" width="410" height="60" as="geometry" />
        </mxCell>
        <mxCell id="BHncRap-kiWOwBSlmbQk-4" value="" style="rounded=0;whiteSpace=wrap;html=1;fillColor=#F5F5F5;strokeColor=#000000;" parent="1" vertex="1">
          <mxGeometry x="780" y="430" width="40" height="40" as="geometry" />
        </mxCell>
        <mxCell id="BHncRap-kiWOwBSlmbQk-5" value="" style="rounded=0;whiteSpace=wrap;html=1;fillColor=#F5F5F5;strokeColor=#000000;" parent="1" vertex="1">
          <mxGeometry x="680" y="430" width="40" height="40" as="geometry" />
        </mxCell>
        <mxCell id="BHncRap-kiWOwBSlmbQk-6" value="" style="rounded=0;whiteSpace=wrap;html=1;fillColor=#F5F5F5;strokeColor=#000000;" parent="1" vertex="1">
          <mxGeometry x="730" y="430" width="40" height="40" as="geometry" />
        </mxCell>
        <mxCell id="BHncRap-kiWOwBSlmbQk-7" value="" style="rounded=0;whiteSpace=wrap;html=1;fillColor=#F5F5F5;strokeColor=#000000;" parent="1" vertex="1">
          <mxGeometry x="580" y="430" width="40" height="40" as="geometry" />
        </mxCell>
        <mxCell id="BHncRap-kiWOwBSlmbQk-8" value="" style="rounded=0;whiteSpace=wrap;html=1;fillColor=#F5F5F5;strokeColor=#000000;" parent="1" vertex="1">
          <mxGeometry x="630" y="430" width="40" height="40" as="geometry" />
        </mxCell>
        <mxCell id="BHncRap-kiWOwBSlmbQk-9" value="" style="endArrow=classic;html=1;rounded=0;entryX=0.5;entryY=0;entryDx=0;entryDy=0;fillColor=#f8cecc;strokeColor=#FF6666;exitX=0.5;exitY=1;exitDx=0;exitDy=0;strokeWidth=2;" parent="1" source="BHncRap-kiWOwBSlmbQk-46" target="BHncRap-kiWOwBSlmbQk-47" edge="1">
          <mxGeometry width="50" height="50" relative="1" as="geometry">
            <mxPoint x="250" y="310" as="sourcePoint" />
            <mxPoint x="330" y="370" as="targetPoint" />
          </mxGeometry>
        </mxCell>
        <mxCell id="BHncRap-kiWOwBSlmbQk-10" value="" style="endArrow=classic;html=1;rounded=0;entryX=0.5;entryY=0;entryDx=0;entryDy=0;fillColor=#dae8fc;strokeColor=#000000;exitX=0.237;exitY=1.012;exitDx=0;exitDy=0;exitPerimeter=0;strokeWidth=2;" parent="1" source="BHncRap-kiWOwBSlmbQk-15" target="BHncRap-kiWOwBSlmbQk-49" edge="1">
          <mxGeometry width="50" height="50" relative="1" as="geometry">
            <mxPoint x="560" y="370" as="sourcePoint" />
            <mxPoint x="590" y="480" as="targetPoint" />
          </mxGeometry>
        </mxCell>
        <mxCell id="BHncRap-kiWOwBSlmbQk-11" value="" style="endArrow=classic;html=1;rounded=0;exitX=0.578;exitY=0.997;exitDx=0;exitDy=0;entryX=0.5;entryY=0;entryDx=0;entryDy=0;fillColor=#fff2cc;strokeColor=#000000;exitPerimeter=0;strokeWidth=2;" parent="1" source="BHncRap-kiWOwBSlmbQk-15" target="BHncRap-kiWOwBSlmbQk-8" edge="1">
          <mxGeometry width="50" height="50" relative="1" as="geometry">
            <mxPoint x="680.0000000000001" y="370" as="sourcePoint" />
            <mxPoint x="720" y="480" as="targetPoint" />
          </mxGeometry>
        </mxCell>
        <mxCell id="BHncRap-kiWOwBSlmbQk-12" value="" style="endArrow=classic;html=1;rounded=0;exitX=0.684;exitY=1;exitDx=0;exitDy=0;entryX=0.5;entryY=0;entryDx=0;entryDy=0;fillColor=#fff2cc;strokeColor=#000000;exitPerimeter=0;strokeWidth=2;" parent="1" source="BHncRap-kiWOwBSlmbQk-15" target="BHncRap-kiWOwBSlmbQk-5" edge="1">
          <mxGeometry width="50" height="50" relative="1" as="geometry">
            <mxPoint x="701.42" y="371.38" as="sourcePoint" />
            <mxPoint x="720" y="480" as="targetPoint" />
          </mxGeometry>
        </mxCell>
        <mxCell id="BHncRap-kiWOwBSlmbQk-13" value="" style="endArrow=classic;html=1;rounded=0;exitX=0.789;exitY=1.016;exitDx=0;exitDy=0;entryX=0.5;entryY=0;entryDx=0;entryDy=0;fillColor=#fff2cc;strokeColor=#000000;exitPerimeter=0;strokeWidth=2;" parent="1" source="BHncRap-kiWOwBSlmbQk-15" target="BHncRap-kiWOwBSlmbQk-6" edge="1">
          <mxGeometry width="50" height="50" relative="1" as="geometry">
            <mxPoint x="725" y="370" as="sourcePoint" />
            <mxPoint x="710" y="440" as="targetPoint" />
          </mxGeometry>
        </mxCell>
        <mxCell id="BHncRap-kiWOwBSlmbQk-14" value="" style="endArrow=classic;html=1;rounded=0;exitX=0.897;exitY=1.007;exitDx=0;exitDy=0;entryX=0.5;entryY=0;entryDx=0;entryDy=0;fillColor=#fff2cc;strokeColor=#000000;exitPerimeter=0;strokeWidth=2;" parent="1" source="BHncRap-kiWOwBSlmbQk-15" target="BHncRap-kiWOwBSlmbQk-4" edge="1">
          <mxGeometry width="50" height="50" relative="1" as="geometry">
            <mxPoint x="770" y="370" as="sourcePoint" />
            <mxPoint x="760" y="440" as="targetPoint" />
          </mxGeometry>
        </mxCell>
        <mxCell id="BHncRap-kiWOwBSlmbQk-15" value="&lt;b&gt;&lt;font style=&quot;font-size: 16px;&quot;&gt;volné pozice&lt;/font&gt;&lt;/b&gt;" style="rounded=0;whiteSpace=wrap;html=1;strokeColor=#000000;strokeWidth=2;" parent="1" vertex="1">
          <mxGeometry x="570" y="330" width="190" height="50" as="geometry" />
        </mxCell>
        <mxCell id="BHncRap-kiWOwBSlmbQk-16" value="" style="rounded=0;whiteSpace=wrap;html=1;fillColor=#f5f5f5;fontColor=#333333;strokeColor=#666666;strokeWidth=2;" parent="1" vertex="1">
          <mxGeometry x="80" y="510" width="260" height="60" as="geometry" />
        </mxCell>
        <mxCell id="BHncRap-kiWOwBSlmbQk-17" value="&lt;b&gt;&lt;font style=&quot;font-size: 16px;&quot;&gt;ukazatel na aktuálně&amp;nbsp;&lt;/font&gt;&lt;/b&gt;&lt;div&gt;&lt;b&gt;&lt;font style=&quot;font-size: 16px;&quot;&gt;zpracovávanou&lt;/font&gt;&lt;/b&gt;&lt;div&gt;&lt;b&gt;&lt;font style=&quot;font-size: 16px;&quot;&gt;&amp;nbsp;vyrovnávací paměť&lt;/font&gt;&lt;/b&gt;&lt;/div&gt;&lt;/div&gt;" style="text;html=1;align=center;verticalAlign=middle;whiteSpace=wrap;rounded=0;" parent="1" vertex="1">
          <mxGeometry x="80" y="510" width="210" height="60" as="geometry" />
        </mxCell>
        <mxCell id="BHncRap-kiWOwBSlmbQk-18" value="" style="rounded=0;whiteSpace=wrap;html=1;fillColor=#e1d5e7;strokeColor=#9673a6;strokeWidth=2;" parent="1" vertex="1">
          <mxGeometry x="290" y="520" width="40" height="40" as="geometry" />
        </mxCell>
        <mxCell id="BHncRap-kiWOwBSlmbQk-19" value="" style="endArrow=classic;html=1;rounded=0;exitX=1;exitY=0.5;exitDx=0;exitDy=0;entryX=0;entryY=0.5;entryDx=0;entryDy=0;strokeWidth=2;" parent="1" source="BHncRap-kiWOwBSlmbQk-20" target="BHncRap-kiWOwBSlmbQk-3" edge="1">
          <mxGeometry width="50" height="50" relative="1" as="geometry">
            <mxPoint x="290" y="560" as="sourcePoint" />
            <mxPoint x="410" y="460" as="targetPoint" />
          </mxGeometry>
        </mxCell>
        <mxCell id="BHncRap-kiWOwBSlmbQk-20" value="" style="ellipse;whiteSpace=wrap;html=1;aspect=fixed;fillColor=#000000;" parent="1" vertex="1">
          <mxGeometry x="305" y="535" width="10" height="10" as="geometry" />
        </mxCell>
        <mxCell id="BHncRap-kiWOwBSlmbQk-21" value="" style="rounded=0;whiteSpace=wrap;html=1;fillColor=#f5f5f5;fontColor=#333333;strokeColor=#666666;strokeWidth=2;" parent="1" vertex="1">
          <mxGeometry x="80" y="410" width="260" height="60" as="geometry" />
        </mxCell>
        <mxCell id="BHncRap-kiWOwBSlmbQk-22" value="&lt;b style=&quot;font-size: 16px;&quot;&gt;ukazatel na právě zapisovanou&amp;nbsp;vyrovnávací paměť&lt;/b&gt;" style="text;html=1;align=center;verticalAlign=middle;whiteSpace=wrap;rounded=0;" parent="1" vertex="1">
          <mxGeometry x="80" y="410" width="200" height="60" as="geometry" />
        </mxCell>
        <mxCell id="BHncRap-kiWOwBSlmbQk-23" value="" style="rounded=0;whiteSpace=wrap;html=1;fillColor=#f8cecc;strokeColor=#b85450;strokeWidth=2;" parent="1" vertex="1">
          <mxGeometry x="290" y="420" width="40" height="40" as="geometry" />
        </mxCell>
        <mxCell id="BHncRap-kiWOwBSlmbQk-24" value="" style="ellipse;whiteSpace=wrap;html=1;aspect=fixed;fillColor=#000000;" parent="1" vertex="1">
          <mxGeometry x="305" y="435" width="10" height="10" as="geometry" />
        </mxCell>
        <mxCell id="BHncRap-kiWOwBSlmbQk-25" value="" style="endArrow=classic;html=1;rounded=0;exitX=1;exitY=0.5;exitDx=0;exitDy=0;entryX=0;entryY=0.5;entryDx=0;entryDy=0;strokeWidth=2;" parent="1" source="BHncRap-kiWOwBSlmbQk-24" target="BHncRap-kiWOwBSlmbQk-1" edge="1">
          <mxGeometry width="50" height="50" relative="1" as="geometry">
            <mxPoint x="190" y="470" as="sourcePoint" />
            <mxPoint x="380" y="430" as="targetPoint" />
          </mxGeometry>
        </mxCell>
        <mxCell id="BHncRap-kiWOwBSlmbQk-26" value="" style="rounded=0;whiteSpace=wrap;html=1;fillColor=#D5E8D4;strokeColor=#666666;fontColor=#333333;" parent="1" vertex="1">
          <mxGeometry x="680" y="520" width="40" height="40" as="geometry" />
        </mxCell>
        <mxCell id="BHncRap-kiWOwBSlmbQk-27" value="" style="rounded=0;whiteSpace=wrap;html=1;fillColor=#D5E8D4;strokeColor=#666666;fontColor=#333333;" parent="1" vertex="1">
          <mxGeometry x="730" y="520" width="40" height="40" as="geometry" />
        </mxCell>
        <mxCell id="BHncRap-kiWOwBSlmbQk-28" value="" style="rounded=0;whiteSpace=wrap;html=1;fillColor=#D5E8D4;strokeColor=#666666;fontColor=#333333;" parent="1" vertex="1">
          <mxGeometry x="780" y="520" width="40" height="40" as="geometry" />
        </mxCell>
        <mxCell id="BHncRap-kiWOwBSlmbQk-32" value="" style="endArrow=classic;html=1;rounded=0;entryX=0.536;entryY=1.013;entryDx=0;entryDy=0;entryPerimeter=0;exitX=0.647;exitY=-0.014;exitDx=0;exitDy=0;strokeWidth=2;exitPerimeter=0;strokeColor=#7EA6E0;" parent="1" source="VB1F1QOkjHw4tOSdN6Vp-2" target="BHncRap-kiWOwBSlmbQk-26" edge="1">
          <mxGeometry width="50" height="50" relative="1" as="geometry">
            <mxPoint x="692.5" y="610" as="sourcePoint" />
            <mxPoint x="710" y="600" as="targetPoint" />
          </mxGeometry>
        </mxCell>
        <mxCell id="BHncRap-kiWOwBSlmbQk-33" value="" style="endArrow=classic;html=1;rounded=0;entryX=0.5;entryY=1;entryDx=0;entryDy=0;exitX=0.8;exitY=-0.015;exitDx=0;exitDy=0;exitPerimeter=0;strokeWidth=2;strokeColor=#7EA6E0;" parent="1" source="VB1F1QOkjHw4tOSdN6Vp-2" target="BHncRap-kiWOwBSlmbQk-27" edge="1">
          <mxGeometry width="50" height="50" relative="1" as="geometry">
            <mxPoint x="714.9199999999998" y="609.6500000000001" as="sourcePoint" />
            <mxPoint x="711" y="571" as="targetPoint" />
          </mxGeometry>
        </mxCell>
        <mxCell id="BHncRap-kiWOwBSlmbQk-34" value="" style="endArrow=classic;html=1;rounded=0;exitX=1;exitY=0;exitDx=0;exitDy=0;entryX=0.5;entryY=1;entryDx=0;entryDy=0;strokeWidth=2;strokeColor=#7EA6E0;" parent="1" source="VB1F1QOkjHw4tOSdN6Vp-2" target="BHncRap-kiWOwBSlmbQk-28" edge="1">
          <mxGeometry width="50" height="50" relative="1" as="geometry">
            <mxPoint x="725.3700000000001" y="610" as="sourcePoint" />
            <mxPoint x="810" y="580" as="targetPoint" />
          </mxGeometry>
        </mxCell>
        <mxCell id="BHncRap-kiWOwBSlmbQk-35" value="" style="rounded=0;whiteSpace=wrap;html=1;fillColor=#D5E8D4;strokeColor=#000000;fontColor=#333333;strokeWidth=1;" parent="1" vertex="1">
          <mxGeometry x="430" y="520" width="40" height="40" as="geometry" />
        </mxCell>
        <mxCell id="BHncRap-kiWOwBSlmbQk-36" value="" style="rounded=0;whiteSpace=wrap;html=1;fillColor=#D5E8D4;strokeColor=#666666;fontColor=#333333;" parent="1" vertex="1">
          <mxGeometry x="580" y="520" width="40" height="40" as="geometry" />
        </mxCell>
        <mxCell id="BHncRap-kiWOwBSlmbQk-37" value="" style="rounded=0;whiteSpace=wrap;html=1;fillColor=#D5E8D4;strokeColor=#666666;fontColor=#333333;" parent="1" vertex="1">
          <mxGeometry x="530" y="520" width="40" height="40" as="geometry" />
        </mxCell>
        <mxCell id="BHncRap-kiWOwBSlmbQk-38" value="" style="rounded=0;whiteSpace=wrap;html=1;fillColor=#D5E8D4;strokeColor=#666666;fontColor=#333333;" parent="1" vertex="1">
          <mxGeometry x="480" y="520" width="40" height="40" as="geometry" />
        </mxCell>
        <mxCell id="BHncRap-kiWOwBSlmbQk-41" value="" style="endArrow=classic;html=1;rounded=0;entryX=0.5;entryY=1;entryDx=0;entryDy=0;exitX=0.202;exitY=-0.009;exitDx=0;exitDy=0;exitPerimeter=0;strokeWidth=2;strokeColor=#7EA6E0;" parent="1" source="VB1F1QOkjHw4tOSdN6Vp-2" target="BHncRap-kiWOwBSlmbQk-38" edge="1">
          <mxGeometry width="50" height="50" relative="1" as="geometry">
            <mxPoint x="568.4300000000001" y="609.8999999999999" as="sourcePoint" />
            <mxPoint x="551.5" y="550" as="targetPoint" />
          </mxGeometry>
        </mxCell>
        <mxCell id="BHncRap-kiWOwBSlmbQk-42" value="" style="endArrow=classic;html=1;rounded=0;entryX=0.5;entryY=1;entryDx=0;entryDy=0;exitX=0.393;exitY=-0.032;exitDx=0;exitDy=0;exitPerimeter=0;strokeWidth=2;strokeColor=#7EA6E0;" parent="1" source="VB1F1QOkjHw4tOSdN6Vp-1" target="BHncRap-kiWOwBSlmbQk-37" edge="1">
          <mxGeometry width="50" height="50" relative="1" as="geometry">
            <mxPoint x="583.8199999999999" y="609.8500000000001" as="sourcePoint" />
            <mxPoint x="630" y="570" as="targetPoint" />
          </mxGeometry>
        </mxCell>
        <mxCell id="BHncRap-kiWOwBSlmbQk-43" value="" style="endArrow=classic;html=1;rounded=0;entryX=0.5;entryY=1;entryDx=0;entryDy=0;exitX=0.399;exitY=-0.014;exitDx=0;exitDy=0;exitPerimeter=0;strokeWidth=2;strokeColor=#7EA6E0;" parent="1" source="VB1F1QOkjHw4tOSdN6Vp-2" target="BHncRap-kiWOwBSlmbQk-36" edge="1">
          <mxGeometry width="50" height="50" relative="1" as="geometry">
            <mxPoint x="604.53" y="609.6500000000001" as="sourcePoint" />
            <mxPoint x="630" y="570" as="targetPoint" />
          </mxGeometry>
        </mxCell>
        <mxCell id="BHncRap-kiWOwBSlmbQk-44" value="" style="endArrow=classic;html=1;rounded=0;entryX=0.5;entryY=1;entryDx=0;entryDy=0;exitX=0.647;exitY=-0.02;exitDx=0;exitDy=0;strokeWidth=2;exitPerimeter=0;strokeColor=#7EA6E0;" parent="1" source="VB1F1QOkjHw4tOSdN6Vp-2" target="BHncRap-kiWOwBSlmbQk-2" edge="1">
          <mxGeometry width="50" height="50" relative="1" as="geometry">
            <mxPoint x="645" y="610" as="sourcePoint" />
            <mxPoint x="651.5" y="560" as="targetPoint" />
          </mxGeometry>
        </mxCell>
        <mxCell id="BHncRap-kiWOwBSlmbQk-45" value="" style="rounded=0;whiteSpace=wrap;html=1;strokeColor=#FF6666;strokeWidth=2;" parent="1" vertex="1">
          <mxGeometry x="350" y="330" width="200" height="50" as="geometry" />
        </mxCell>
        <mxCell id="BHncRap-kiWOwBSlmbQk-46" value="&lt;b&gt;&lt;font style=&quot;font-size: 16px;&quot;&gt;aktuálně zpracovávaná&lt;/font&gt;&lt;/b&gt;&lt;div&gt;&lt;b&gt;&lt;font style=&quot;font-size: 16px;&quot;&gt;pozice&lt;/font&gt;&lt;/b&gt;&lt;/div&gt;" style="text;html=1;align=center;verticalAlign=middle;whiteSpace=wrap;rounded=0;" parent="1" vertex="1">
          <mxGeometry x="350" y="330" width="200" height="50" as="geometry" />
        </mxCell>
        <mxCell id="BHncRap-kiWOwBSlmbQk-47" value="" style="rounded=0;whiteSpace=wrap;html=1;fillColor=#F5F5F5;strokeColor=#FF6666;strokeWidth=2;" parent="1" vertex="1">
          <mxGeometry x="430" y="430" width="40" height="40" as="geometry" />
        </mxCell>
        <mxCell id="BHncRap-kiWOwBSlmbQk-48" value="" style="rounded=0;whiteSpace=wrap;html=1;fillColor=#F5F5F5;strokeColor=#000000;" parent="1" vertex="1">
          <mxGeometry x="530" y="430" width="40" height="40" as="geometry" />
        </mxCell>
        <mxCell id="BHncRap-kiWOwBSlmbQk-49" value="" style="rounded=0;whiteSpace=wrap;html=1;fillColor=#F5F5F5;strokeColor=#000000;" parent="1" vertex="1">
          <mxGeometry x="480" y="430" width="40" height="40" as="geometry" />
        </mxCell>
        <mxCell id="BHncRap-kiWOwBSlmbQk-50" value="" style="endArrow=classic;html=1;rounded=0;exitX=0.473;exitY=0.995;exitDx=0;exitDy=0;entryX=0.5;entryY=0;entryDx=0;entryDy=0;fillColor=#fff2cc;strokeColor=#000000;exitPerimeter=0;strokeWidth=2;" parent="1" source="BHncRap-kiWOwBSlmbQk-15" target="BHncRap-kiWOwBSlmbQk-7" edge="1">
          <mxGeometry width="50" height="50" relative="1" as="geometry">
            <mxPoint x="660" y="380" as="sourcePoint" />
            <mxPoint x="630" y="430" as="targetPoint" />
          </mxGeometry>
        </mxCell>
        <mxCell id="BHncRap-kiWOwBSlmbQk-51" value="" style="endArrow=classic;html=1;rounded=0;exitX=0.37;exitY=1.009;exitDx=0;exitDy=0;fillColor=#fff2cc;strokeColor=#000000;exitPerimeter=0;entryX=0.5;entryY=0;entryDx=0;entryDy=0;strokeWidth=2;" parent="1" source="BHncRap-kiWOwBSlmbQk-15" target="BHncRap-kiWOwBSlmbQk-48" edge="1">
          <mxGeometry width="50" height="50" relative="1" as="geometry">
            <mxPoint x="610" y="380" as="sourcePoint" />
            <mxPoint x="550" y="430" as="targetPoint" />
          </mxGeometry>
        </mxCell>
        <mxCell id="BHncRap-kiWOwBSlmbQk-53" value="&lt;font style=&quot;font-size: 18px;&quot;&gt;&lt;b style=&quot;&quot;&gt;vyrovávací paměť 2.&lt;/b&gt;&lt;/font&gt;" style="text;html=1;align=right;verticalAlign=middle;whiteSpace=wrap;rounded=0;" parent="1" vertex="1">
          <mxGeometry x="830" y="510" width="180" height="60" as="geometry" />
        </mxCell>
        <mxCell id="wUiVb9DB8rMpb05KVUhw-2" value="&lt;font style=&quot;font-size: 18px;&quot;&gt;&lt;b style=&quot;&quot;&gt;vyrovávací paměť 1.&lt;/b&gt;&lt;/font&gt;" style="text;html=1;align=right;verticalAlign=middle;whiteSpace=wrap;rounded=0;" parent="1" vertex="1">
          <mxGeometry x="830" y="420" width="180" height="60" as="geometry" />
        </mxCell>
        <mxCell id="VB1F1QOkjHw4tOSdN6Vp-1" value="" style="rounded=0;whiteSpace=wrap;html=1;strokeWidth=2;" parent="1" vertex="1">
          <mxGeometry x="520" y="610" width="200" height="50" as="geometry" />
        </mxCell>
        <mxCell id="VB1F1QOkjHw4tOSdN6Vp-2" value="&lt;font style=&quot;font-size: 16px;&quot;&gt;&lt;b style=&quot;font-size: 12px;&quot;&gt;&lt;font style=&quot;font-size: 16px;&quot;&gt;aktuálně&lt;/font&gt;&lt;/b&gt;&lt;b&gt;&amp;nbsp;ukládaná data&lt;/b&gt;&lt;/font&gt;" style="text;html=1;align=center;verticalAlign=middle;whiteSpace=wrap;rounded=0;strokeWidth=2;" parent="1" vertex="1">
          <mxGeometry x="520" y="610" width="200" height="50" as="geometry" />
        </mxCell>
        <mxCell id="VB1F1QOkjHw4tOSdN6Vp-4" value="" style="endArrow=classic;html=1;rounded=0;entryX=0.5;entryY=1;entryDx=0;entryDy=0;exitX=0;exitY=0;exitDx=0;exitDy=0;strokeWidth=2;strokeColor=#7EA6E0;" parent="1" source="VB1F1QOkjHw4tOSdN6Vp-2" target="BHncRap-kiWOwBSlmbQk-35" edge="1">
          <mxGeometry width="50" height="50" relative="1" as="geometry">
            <mxPoint x="578.4300000000001" y="619.8999999999999" as="sourcePoint" />
            <mxPoint x="510" y="570" as="targetPoint" />
          </mxGeometry>
        </mxCell>
      </root>
    </mxGraphModel>
  </diagram>
</mxfile>
